<?xml version="1.0" encoding="UTF-8"?>
<svg xmlns="http://www.w3.org/2000/svg" xmlns:svgjs="http://svgjs.dev/svgjs" xmlns:xlink="http://www.w3.org/1999/xlink" version="1.1" width="2000" height="1500" viewBox="0 0 2000 1500">
   <rect width="2000" height="1500" fill="#000000" />
   <g transform="matrix(0.3705075954057058,0,0,0.3705075954057058,629.4412897512009,250.40486366180346)">
      <svg viewBox="0 0 183 247" data-background-color="#0023ff" preserveAspectRatio="xMidYMid meet" height="2699" width="2000">
         <g id="tight-bounds" transform="matrix(1,0,0,1,0.012623327757125935,-0.10000132446546672)">
            <svg viewBox="0 0 182.97475342726477 247.2" height="247.2" width="182.97475342726477">
               <g>
                  <svg viewBox="0 0 361.3714285714286 488.21498851407165" height="247.2" width="182.97475342726477">
                     <g transform="matrix(1,0,0,1,0,241.01498851407166)">
                        <svg viewBox="0 0 361.3714285714286 247.2" height="247.2" width="361.3714285714286">
                           <g>
                              <svg viewBox="0 0 361.3714285714286 247.2" height="247.2" width="361.3714285714286">
                                 <g>
                                    <svg viewBox="0 0 361.3714285714286 247.2" height="247.2" width="361.3714285714286">
                                       <g transform="matrix(1,0,0,1,0,0)">
                                          <svg width="361.3714285714286" viewBox="1.850000023841858 -35.5 52.70000076293945 36.04999923706055" height="247.2" data-palette-color="#f9f8f8">
                                             <path d="M7.75-9.75Q8-7.55 9.55-6.2 11.1-4.85 13.6-4.85L13.6-4.85Q15.7-4.85 17.03-5.55 18.35-6.25 18.95-7.25 19.55-8.25 19.55-9.2L19.55-9.2Q19.55-11.4 18.48-12.88 17.4-14.35 15.83-15.23 14.25-16.1 11.55-17.25L11.55-17.25Q8.6-18.5 6.88-19.53 5.15-20.55 3.93-22.33 2.7-24.1 2.7-26.85L2.7-26.85Q2.7-29.05 3.95-31.03 5.2-33 7.75-34.25 10.3-35.5 14-35.5L14-35.5Q16.45-35.5 18.05-35.15 19.65-34.8 21.3-34L21.3-34 19.55-28.8Q17.75-29.4 16.63-29.65 15.5-29.9 14.05-29.9L14.05-29.9Q11.2-29.9 9.85-28.9 8.5-27.9 8.65-26.35L8.65-26.35Q8.8-25.1 10.18-24.2 11.55-23.3 14.45-22L14.45-22Q17.85-20.5 20.1-19.15 22.35-17.8 23.98-15.45 25.6-13.1 25.6-9.7L25.6-9.7Q25.6-5.25 22.65-2.35 19.7 0.55 13.65 0.55L13.65 0.55Q9.95 0.55 7.33-0.83 4.7-2.2 3.33-4.38 1.95-6.55 1.85-8.9L1.85-8.9 7.75-9.75ZM47.7 0L38.25-13.9 37.9-13.4 37.9 0 32 0 32-35.05 37.9-35.05 37.9-23 46-35.05 52.6-35.05 41.5-18.8 54.55 0 47.7 0Z" opacity="1" transform="matrix(1,0,0,1,0,0)" fill="#ffffff" class="undefined-text-0" data-fill-palette-color="primary" id="text-0" />
                                          </svg>
                                       </g>
                                    </svg>
                                 </g>
                              </svg>
                           </g>
                        </svg>
                     </g>
                     <g transform="matrix(1,0,0,1,69.02194285714288,0)">
                        <svg viewBox="0 0 223.32754285714287 182.65700131407166" height="182.65700131407166" width="223.32754285714287">
                           <g>
                              <svg version="1.1" x="8" y="0" viewBox="6.300000190734863 11.5 87.39999389648438 77" style="enable-background:new 0 0 100 100;" xml:space="preserve" height="182.65700131407166" width="207.32754285714287" class="icon-icon-0" data-fill-palette-color="accent" id="icon-0"><path d="M72.3 12.3L72.3 12.3 72.3 12.3l-0.4-0.8H28.2L6.3 50l21.8 38.5h43.7L93.7 50 72.3 12.3zM33.3 25.3L9.9 47.7l18.6-32.8L33.3 25.3zM70.7 14.8l6.4 35.7L36.9 25.8 70.7 14.8zM35.5 27.3l41 25.2-41 23.3V27.3zM77 54.5l-7.2 30.8-32.6-8.1L77 54.5zM33.5 75L9.9 50.5l23.6-22.7V75zM33.2 77.6l-4.6 7.7L11.5 55.1 33.2 77.6zM35 78.6l31.4 7.9H30.2L35 78.6zM79.3 53.3l11.6-2.5L72.1 84 79.3 53.3zM90.7 48.9l-11.4 2.5-5.9-33.1L90.7 48.9zM35 24.3l-5-10.8h38.2L35 24.3z" fill="#ffffff" data-fill-palette-color="accent" /></svg>
                           </g>
                        </svg>
                     </g>
                     <g />
                  </svg>
               </g>
               <defs />
            </svg>
            <rect width="182.97475342726477" height="247.2" fill="none" stroke="none" visibility="hidden" />
         </g>
      </svg>
   </g>
</svg>